<svg xmlns="http://www.w3.org/2000/svg" xmlns:xlink="http://www.w3.org/1999/xlink" width="500" zoomAndPan="magnify" viewBox="0 0 375 374.999991" height="500" preserveAspectRatio="xMidYMid meet" version="1.0"><defs><g/><clipPath id="0266765e1b"><rect x="0" width="115" y="0" height="105"/></clipPath><clipPath id="2d27754ec5"><rect x="0" width="176" y="0" height="82"/></clipPath></defs><g transform="matrix(1, 0, 0, 1, 216, 125)"><g clip-path="url(#0266765e1b)"><g fill="#1b1b1b" fill-opacity="1"><g transform="translate(0.497129, 84.867141)"><g><path d="M 16.34375 0.21875 C 12.613281 0.21875 9.863281 -0.347656 8.09375 -1.484375 C 6.332031 -2.617188 5.238281 -3.988281 4.8125 -5.59375 C 4.382812 -7.195312 4.171875 -9.25 4.171875 -11.75 L 4.25 -53.078125 L 15.21875 -53.078125 L 15.21875 -14.015625 C 15.21875 -12.359375 15.296875 -11.117188 15.453125 -10.296875 C 15.617188 -9.472656 16.09375 -8.820312 16.875 -8.34375 C 17.65625 -7.875 18.894531 -7.640625 20.59375 -7.640625 C 21.488281 -7.640625 22.101562 -7.6875 22.4375 -7.78125 L 22.4375 -0.140625 C 20.3125 0.0976562 18.28125 0.21875 16.34375 0.21875 Z M 16.34375 0.21875 "/></g></g></g><g fill="#1b1b1b" fill-opacity="1"><g transform="translate(19.674021, 84.867141)"><g><path d="M 16.765625 0.640625 C 12.148438 0.640625 8.578125 -1.113281 6.046875 -4.625 C 3.523438 -8.144531 2.265625 -12.851562 2.265625 -18.75 C 2.265625 -24.695312 3.5625 -29.425781 6.15625 -32.9375 C 8.75 -36.457031 12.332031 -38.21875 16.90625 -38.21875 C 20.070312 -38.21875 22.503906 -37.519531 24.203125 -36.125 C 25.898438 -34.726562 27.078125 -33.328125 27.734375 -31.921875 L 28.3125 -31.921875 L 28.3125 -37.4375 L 39.421875 -37.4375 L 39.421875 0 L 28.3125 0 L 28.3125 -6.015625 L 27.734375 -6.015625 C 27.023438 -4.503906 25.8125 -3.015625 24.09375 -1.546875 C 22.375 -0.0859375 19.929688 0.640625 16.765625 0.640625 Z M 20.953125 -8.203125 C 23.453125 -8.203125 25.3125 -9.25 26.53125 -11.34375 C 27.757812 -13.445312 28.375 -15.941406 28.375 -18.828125 C 28.375 -21.648438 27.757812 -24.113281 26.53125 -26.21875 C 25.3125 -28.320312 23.453125 -29.375 20.953125 -29.375 C 18.347656 -29.375 16.445312 -28.347656 15.25 -26.296875 C 14.050781 -24.242188 13.453125 -21.773438 13.453125 -18.890625 C 13.453125 -15.960938 14.050781 -13.445312 15.25 -11.34375 C 16.445312 -9.25 18.347656 -8.203125 20.953125 -8.203125 Z M 20.953125 -8.203125 "/></g></g></g><g fill="#1b1b1b" fill-opacity="1"><g transform="translate(57.603229, 84.867141)"><g><path d="M 26.25 0.640625 C 23.132812 0.640625 20.726562 -0.0664062 19.03125 -1.484375 C 17.332031 -2.898438 16.082031 -4.410156 15.28125 -6.015625 L 14.71875 -6.015625 L 14.71875 0 L 3.609375 0 L 3.609375 -53.140625 L 14.71875 -53.140625 L 14.71875 -31.921875 L 15.28125 -31.921875 C 15.945312 -33.328125 17.140625 -34.726562 18.859375 -36.125 C 20.578125 -37.519531 23.019531 -38.21875 26.1875 -38.21875 C 30.851562 -38.21875 34.445312 -36.46875 36.96875 -32.96875 C 39.5 -29.476562 40.765625 -24.738281 40.765625 -18.75 C 40.765625 -12.851562 39.5 -8.144531 36.96875 -4.625 C 34.445312 -1.113281 30.875 0.640625 26.25 0.640625 Z M 22.15625 -8.0625 C 24.695312 -8.0625 26.566406 -9.125 27.765625 -11.25 C 28.972656 -13.375 29.578125 -15.875 29.578125 -18.75 C 29.578125 -21.625 28.972656 -24.085938 27.765625 -26.140625 C 26.566406 -28.191406 24.695312 -29.21875 22.15625 -29.21875 C 19.601562 -29.21875 17.722656 -28.179688 16.515625 -26.109375 C 15.316406 -24.035156 14.71875 -21.582031 14.71875 -18.75 C 14.71875 -15.875 15.332031 -13.375 16.5625 -11.25 C 17.789062 -9.125 19.65625 -8.0625 22.15625 -8.0625 Z M 22.15625 -8.0625 "/></g></g></g><g fill="#1b1b1b" fill-opacity="1"><g transform="translate(95.24939, 84.867141)"><g><path d="M 11.890625 0.640625 C 10.140625 0.640625 8.695312 0.0507812 7.5625 -1.125 C 6.4375 -2.3125 5.875 -3.753906 5.875 -5.453125 C 5.875 -7.148438 6.4375 -8.578125 7.5625 -9.734375 C 8.695312 -10.890625 10.140625 -11.46875 11.890625 -11.46875 C 13.628906 -11.46875 15.078125 -10.890625 16.234375 -9.734375 C 17.390625 -8.578125 17.96875 -7.148438 17.96875 -5.453125 C 17.96875 -3.753906 17.378906 -2.3125 16.203125 -1.125 C 15.023438 0.0507812 13.585938 0.640625 11.890625 0.640625 Z M 11.890625 0.640625 "/></g></g></g></g></g><g transform="matrix(1, 0, 0, 1, 41, 150)"><g clip-path="url(#2d27754ec5)"><g fill="#1b1b1b" fill-opacity="1"><g transform="translate(1.48809, 58.534459)"><g><path d="M 38.734375 -11.3125 L 69.6875 -54.125 L 84.84375 -54.125 L 84.4375 -52.6875 C 81.976562 -52.6875 80.109375 -52.363281 78.828125 -51.71875 C 77.546875 -51.082031 76.539062 -50.066406 75.8125 -48.671875 C 75.09375 -47.285156 74.304688 -45.09375 73.453125 -42.09375 L 65.265625 -13.546875 L 64.71875 -11.703125 C 64.226562 -10.097656 63.875 -8.84375 63.65625 -7.9375 C 63.445312 -7.03125 63.34375 -6.253906 63.34375 -5.609375 C 63.34375 -3.898438 63.941406 -2.773438 65.140625 -2.234375 C 66.347656 -1.703125 68.023438 -1.4375 70.171875 -1.4375 L 69.6875 0 L 44.34375 0 L 44.828125 -1.4375 C 47.492188 -1.4375 49.484375 -1.664062 50.796875 -2.125 C 52.109375 -2.582031 53.175781 -3.488281 54 -4.84375 C 54.832031 -6.207031 55.703125 -8.46875 56.609375 -11.625 L 66.078125 -44.5 L 65.921875 -44.671875 L 33.921875 0 L 32.3125 0 L 27.265625 -44.671875 L 27.109375 -44.671875 L 17.15625 -11.3125 C 16.78125 -10.132812 16.457031 -9.023438 16.1875 -7.984375 C 15.925781 -6.941406 15.796875 -6.046875 15.796875 -5.296875 C 15.796875 -3.898438 16.34375 -2.90625 17.4375 -2.3125 C 18.53125 -1.726562 20.125 -1.4375 22.21875 -1.4375 L 21.734375 0 L 3.125 0 L 3.609375 -1.4375 C 6.015625 -1.4375 7.84375 -1.742188 9.09375 -2.359375 C 10.351562 -2.972656 11.332031 -3.9375 12.03125 -5.25 C 12.726562 -6.5625 13.472656 -8.582031 14.265625 -11.3125 L 25.828125 -49.640625 C 25.023438 -50.867188 23.976562 -51.679688 22.6875 -52.078125 C 21.40625 -52.484375 19.9375 -52.6875 18.28125 -52.6875 L 18.6875 -54.125 L 33.921875 -54.125 Z M 38.734375 -11.3125 "/></g></g></g><g fill="#1b1b1b" fill-opacity="1"><g transform="translate(75.261763, 58.534459)"><g><path d="M 25.828125 -36.640625 C 27.742188 -36.640625 29.554688 -36.128906 31.265625 -35.109375 C 32.984375 -34.097656 34.363281 -32.671875 35.40625 -30.828125 C 36.445312 -28.984375 36.96875 -26.882812 36.96875 -24.53125 C 36.96875 -19.832031 35.765625 -15.53125 33.359375 -11.625 C 30.953125 -7.726562 27.941406 -4.65625 24.328125 -2.40625 C 20.722656 -0.15625 17.289062 0.96875 14.03125 0.96875 C 11.414062 0.96875 9.273438 0.285156 7.609375 -1.078125 C 5.953125 -2.441406 4.75 -4.085938 4 -6.015625 C 3.257812 -7.941406 2.890625 -9.757812 2.890625 -11.46875 C 2.890625 -15.101562 4.007812 -18.894531 6.25 -22.84375 C 8.5 -26.800781 11.398438 -30.085938 14.953125 -32.703125 C 18.503906 -35.328125 22.128906 -36.640625 25.828125 -36.640625 Z M 9.46875 -8.421875 C 9.46875 -6.285156 10.023438 -4.519531 11.140625 -3.125 C 12.265625 -1.738281 13.707031 -1.046875 15.46875 -1.046875 C 17.132812 -1.046875 18.703125 -1.539062 20.171875 -2.53125 C 21.640625 -3.519531 22.878906 -4.867188 23.890625 -6.578125 C 25.867188 -9.785156 27.484375 -13.351562 28.734375 -17.28125 C 29.992188 -21.207031 30.625 -24.484375 30.625 -27.109375 C 30.625 -32.347656 28.648438 -34.96875 24.703125 -34.96875 C 21.867188 -34.96875 19.285156 -33.398438 16.953125 -30.265625 C 14.628906 -27.140625 12.800781 -23.453125 11.46875 -19.203125 C 10.132812 -14.953125 9.46875 -11.359375 9.46875 -8.421875 Z M 9.46875 -8.421875 "/></g></g></g><g fill="#1b1b1b" fill-opacity="1"><g transform="translate(106.855648, 58.534459)"><g><path d="M 18.765625 -7.0625 C 22.179688 -10.957031 24.90625 -14.882812 26.9375 -18.84375 C 28.96875 -22.800781 29.984375 -25.796875 29.984375 -27.828125 C 29.984375 -28.578125 29.835938 -29.140625 29.546875 -29.515625 C 29.253906 -29.890625 28.785156 -30.257812 28.140625 -30.625 C 27.503906 -31 27.035156 -31.375 26.734375 -31.75 C 26.441406 -32.125 26.296875 -32.6875 26.296875 -33.4375 C 26.296875 -34.34375 26.628906 -35.101562 27.296875 -35.71875 C 27.972656 -36.332031 28.789062 -36.640625 29.75 -36.640625 C 30.925781 -36.640625 31.914062 -36.160156 32.71875 -35.203125 C 33.519531 -34.242188 33.921875 -33.117188 33.921875 -31.828125 C 33.921875 -28.410156 32.140625 -23.773438 28.578125 -17.921875 C 25.023438 -12.066406 20.285156 -5.769531 14.359375 0.96875 L 12.90625 0.96875 L 12.984375 -4.734375 C 12.984375 -11.890625 12.582031 -18.519531 11.78125 -24.625 C 11.300781 -28.09375 10.738281 -30.425781 10.09375 -31.625 C 9.457031 -32.832031 8.550781 -33.4375 7.375 -33.4375 C 6.414062 -33.4375 5.664062 -33.359375 5.125 -33.203125 L 5.125 -34.640625 L 15.46875 -36.640625 C 16.757812 -33.054688 17.617188 -28.695312 18.046875 -23.5625 C 18.472656 -18.4375 18.710938 -12.9375 18.765625 -7.0625 Z M 18.765625 -7.0625 "/></g></g></g><g fill="#1b1b1b" fill-opacity="1"><g transform="translate(135.161851, 58.534459)"><g><path d="M 24.9375 -36.640625 C 26.382812 -36.640625 27.691406 -36.144531 28.859375 -35.15625 C 30.035156 -34.164062 30.757812 -32.789062 31.03125 -31.03125 L 31.1875 -31.03125 L 32.46875 -35.765625 L 38.8125 -36.640625 L 30.546875 -7.703125 C 30.492188 -7.585938 30.359375 -7.179688 30.140625 -6.484375 C 29.929688 -5.796875 29.828125 -5.101562 29.828125 -4.40625 C 29.828125 -3.976562 29.929688 -3.644531 30.140625 -3.40625 C 30.359375 -3.164062 30.601562 -3.046875 30.875 -3.046875 C 31.570312 -3.046875 32.453125 -3.523438 33.515625 -4.484375 C 34.585938 -5.453125 35.601562 -6.789062 36.5625 -8.5 L 37.765625 -7.703125 C 36.328125 -5.023438 34.5 -2.910156 32.28125 -1.359375 C 30.0625 0.191406 28.09375 0.96875 26.375 0.96875 C 25.414062 0.96875 24.695312 0.617188 24.21875 -0.078125 C 23.738281 -0.773438 23.5 -1.628906 23.5 -2.640625 C 23.5 -3.335938 23.644531 -4.472656 23.9375 -6.046875 C 24.226562 -7.628906 24.695312 -9.222656 25.34375 -10.828125 L 25.171875 -10.984375 C 19.191406 -3.015625 13.769531 0.96875 8.90625 0.96875 C 6.757812 0.96875 5.054688 0.046875 3.796875 -1.796875 C 2.546875 -3.648438 1.921875 -5.773438 1.921875 -8.171875 C 1.921875 -12.347656 3.132812 -16.664062 5.5625 -21.125 C 8 -25.59375 11.019531 -29.296875 14.625 -32.234375 C 18.238281 -35.171875 21.675781 -36.640625 24.9375 -36.640625 Z M 8.34375 -9.703125 C 8.34375 -7.617188 8.820312 -6.09375 9.78125 -5.125 C 10.738281 -4.164062 11.863281 -3.6875 13.15625 -3.6875 C 14.8125 -3.6875 16.597656 -4.429688 18.515625 -5.921875 C 20.441406 -7.421875 22.21875 -9.332031 23.84375 -11.65625 C 25.476562 -13.988281 26.695312 -16.359375 27.5 -18.765625 C 28.300781 -21.117188 28.890625 -23.054688 29.265625 -24.578125 C 29.640625 -26.097656 29.828125 -27.582031 29.828125 -29.03125 C 29.828125 -31.113281 29.34375 -32.648438 28.375 -33.640625 C 27.414062 -34.628906 26.296875 -35.125 25.015625 -35.125 C 22.503906 -35.125 19.953125 -33.585938 17.359375 -30.515625 C 14.765625 -27.441406 12.613281 -23.84375 10.90625 -19.71875 C 9.195312 -15.601562 8.34375 -12.265625 8.34375 -9.703125 Z M 8.34375 -9.703125 "/></g></g></g></g></g></svg>